<svg width="256" height="256" viewBox="0 0 256 256" fill="none" xmlns="http://www.w3.org/2000/svg">
<rect width="256" height="256" rx="60" fill="#F4F2ED"/>
<g clip-path="url(#clip0_2_57)">
<path d="M92.9425 121.251C90.3774 118.512 86.3819 118.666 84.638 122.153L42.578 206.274C42.1945 207.041 42.0134 207.893 42.0518 208.749C42.0902 209.606 42.3469 210.438 42.7975 211.167C43.2481 211.896 43.8776 212.498 44.6263 212.916C45.375 213.333 46.2179 213.552 47.0751 213.552H105.649C106.588 213.574 107.513 213.323 108.311 212.83C109.11 212.336 109.748 211.621 110.148 210.772C122.778 184.657 115.126 144.953 92.9425 121.251Z" fill="url(#paint0_linear_2_57)"/>
<path d="M123.807 44.7403C100.282 82.0124 101.835 123.293 117.33 154.284L145.573 210.772C145.991 211.607 146.633 212.309 147.427 212.8C148.221 213.291 149.137 213.551 150.071 213.552H208.644C209.501 213.552 210.344 213.332 211.093 212.915C211.842 212.498 212.471 211.896 212.922 211.166C213.372 210.437 213.629 209.605 213.668 208.749C213.706 207.892 213.525 207.04 213.141 206.274C213.141 206.274 134.342 48.6525 132.36 44.7087C130.587 41.1779 126.086 41.1296 123.807 44.7403Z" fill="#2681FF"/>
</g>
<defs>
<linearGradient id="paint0_linear_2_57" x1="7437.42" y1="1607.86" x2="1540.51" y2="7942.11" gradientUnits="userSpaceOnUse">
<stop stop-color="#0052CC"/>
<stop offset="0.923" stop-color="#2684FF"/>
</linearGradient>
<clipPath id="clip0_2_57">
<rect width="171.906" height="171.906" fill="white" transform="translate(42.0469 42.0469)"/>
</clipPath>
</defs>
</svg>
