<svg width="257" height="256" viewBox="0 0 257 256" fill="none" xmlns="http://www.w3.org/2000/svg">
<rect x="0.52124" width="256" height="256" rx="60" fill="#F4F2ED"/>
<g clip-path="url(#clip0_2_24)">
<path d="M125.519 38.9416C76.8828 38.9416 37.2319 78.16 36.5296 126.63C35.8176 175.861 75.7564 216.651 124.991 216.937C140.197 217.025 154.841 213.305 167.846 206.239C168.14 206.079 168.391 205.85 168.577 205.572C168.764 205.295 168.881 204.976 168.918 204.644C168.956 204.311 168.913 203.975 168.793 203.662C168.674 203.35 168.48 203.071 168.23 202.849L159.904 195.466C158.213 193.964 155.802 193.54 153.72 194.427C144.642 198.289 134.777 200.261 124.615 200.137C84.8316 199.649 52.6887 166.55 53.3228 126.767C53.9486 87.4897 86.0957 55.7279 125.519 55.7279H197.725V184.076L156.758 147.675C155.434 146.495 153.401 146.728 152.333 148.14C145.758 156.849 135.046 162.262 123.147 161.44C106.644 160.3 93.2727 147.015 92.0336 130.518C90.5568 110.838 106.148 94.3566 125.523 94.3566C143.042 94.3566 157.47 107.842 158.976 124.975C159.101 126.5 159.805 127.918 160.945 128.939L171.614 138.396C172.823 139.467 174.747 138.814 175.041 137.221C175.81 133.109 176.082 128.821 175.778 124.423C174.058 99.3643 153.763 79.2086 128.695 77.6636C99.9547 75.8905 75.926 98.3755 75.164 126.559C74.42 154.024 96.9231 177.701 124.391 178.307C135.397 178.565 146.181 175.191 155.078 168.706L208.606 216.157C210.902 218.19 214.523 216.563 214.523 213.494V42.3236C214.521 41.4274 214.164 40.5683 213.53 39.9348C212.896 39.3013 212.037 38.9451 211.141 38.9444L125.519 38.9416Z" fill="#003DFF"/>
</g>
<defs>
<clipPath id="clip0_2_24">
<rect width="178" height="178" fill="white" transform="translate(36.5212 39)"/>
</clipPath>
</defs>
</svg>
