<svg width="257" height="256" viewBox="0 0 257 256" fill="none" xmlns="http://www.w3.org/2000/svg">
<g clip-path="url(#clip0_1_58)">
<path d="M196.479 0H60.4789C27.3418 0 0.478851 26.8629 0.478851 60V196C0.478851 229.137 27.3418 256 60.4789 256H196.479C229.616 256 256.479 229.137 256.479 196V60C256.479 26.8629 229.616 0 196.479 0Z" fill="#F4F2ED"/>
<mask id="mask0_1_58" style="mask-type:luminance" maskUnits="userSpaceOnUse" x="28" y="28" width="201" height="200">
<path d="M28.4789 28H228.479V228H28.4789V28Z" fill="white"/>
</mask>
<g mask="url(#mask0_1_58)">
<path d="M79.4789 171.75H211.835V135.125L186.691 120.706L182.354 118.831L79.4789 119.537V171.75Z" fill="white"/>
<path d="M166.054 166.887C167.285 162.669 166.817 158.8 164.767 155.925C162.892 153.287 159.723 151.762 155.917 151.587L83.7599 150.65C83.5405 150.65 83.3245 150.597 83.1306 150.495C82.9367 150.392 82.7709 150.244 82.6479 150.062C82.4099 149.712 82.3539 149.25 82.4729 148.775C82.7099 148.069 83.4099 147.544 84.1729 147.487L156.973 146.55C165.598 146.137 174.973 139.162 178.248 130.612L182.41 119.769C182.594 119.324 182.637 118.833 182.535 118.362C177.848 97.144 158.91 81.319 136.285 81.319C115.41 81.319 97.7229 94.8 91.3849 113.506C87.088 110.317 81.7615 108.834 76.4349 109.344C66.4099 110.344 58.3099 118.369 57.3849 128.394C57.1419 130.887 57.3194 133.403 57.9099 135.837C50.0234 136.051 42.5327 139.338 37.0347 144.996C31.5367 150.654 28.4666 158.236 28.4789 166.125C28.4789 167.587 28.6039 169.062 28.7729 170.519C28.8979 171.225 29.4789 171.75 30.1789 171.75H163.354C163.737 171.743 164.108 171.614 164.414 171.383C164.719 171.152 164.943 170.829 165.054 170.462L166.054 166.887Z" fill="#F38020"/>
<path d="M189.029 120.519L187.029 120.581C186.56 120.581 186.154 120.931 185.966 121.394L183.154 131.181C181.923 135.4 182.391 139.269 184.441 142.144C186.316 144.781 189.485 146.306 193.291 146.481L208.648 147.419C209.116 147.419 209.523 147.656 209.76 148.006C209.998 148.356 210.054 148.881 209.935 149.294C209.698 150 208.998 150.525 208.235 150.581L192.235 151.519C183.56 151.931 174.235 158.906 170.96 167.456L169.785 170.444C169.548 171.031 169.96 171.619 170.598 171.619H225.579C225.897 171.623 226.208 171.521 226.462 171.33C226.716 171.139 226.9 170.869 226.985 170.562C227.96 167.095 228.462 163.513 228.479 159.912C228.449 149.464 224.281 139.454 216.887 132.072C209.494 124.69 199.477 120.538 189.029 120.525" fill="#FAAE40"/>
</g>
</g>
<defs>
<clipPath id="clip0_1_58">
<rect width="256" height="256" fill="white" transform="translate(0.478851)"/>
</clipPath>
</defs>
</svg>
