<svg width="256" height="256" viewBox="0 0 256 256" fill="none" xmlns="http://www.w3.org/2000/svg">
<rect width="256" height="256" rx="60" fill="#F4F2ED"/>
<path d="M61.7319 201.507L46.9925 36.125H209.007L194.248 201.48L127.902 219.875L61.7319 201.507Z" fill="#1572B6"/>
<path d="M128 205.818L181.616 190.954L194.229 49.6503H128V205.818Z" fill="#33A9DC"/>
<path d="M128 109.566H154.841L156.691 88.7956H128V68.5109H178.859L178.374 73.9513L173.393 129.851H128V109.566Z" fill="white"/>
<path d="M128.125 162.243L128.033 162.269L105.445 156.166L104.001 139.99H83.6375L86.4791 171.838L128.026 183.374L128.125 183.348V162.243Z" fill="#EBEBEB"/>
<path d="M153.115 128.991L150.673 156.153L128.052 162.256V183.361L169.632 171.837L169.941 168.412L173.465 128.991H153.115Z" fill="white"/>
<path d="M128.072 68.5109V88.7956H79.0766L78.6697 84.2347L77.7444 73.9513L77.2587 68.5109H128.072ZM128 109.566V129.851H105.694L105.287 125.29L104.368 115.006L103.883 109.566H128Z" fill="#EBEBEB"/>
</svg>
