<svg width="256" height="256" viewBox="0 0 256 256" fill="none" xmlns="http://www.w3.org/2000/svg">
<rect width="256" height="256" rx="60" fill="#F4F2ED"/>
<path d="M62 184.091L63.0989 182.559L114.943 84.2103L115.053 83.1695L92.2015 40.2461C91.7832 39.4611 91.1286 38.8276 90.3304 38.4352C89.5323 38.0427 88.6309 37.9111 87.7538 38.0591C86.8768 38.2071 86.0684 38.627 85.4432 39.2597C84.8179 39.8923 84.4074 40.7055 84.2698 41.5842L62 184.091Z" fill="#FFC24A"/>
<path d="M62.6465 182.928L63.4739 181.312L114.782 83.984L91.9883 40.8925C91.6124 40.1431 91.0038 39.5357 90.2537 39.1612C89.5036 38.7867 88.6523 38.6654 87.8275 38.8154C87.0026 38.9654 86.2486 39.3786 85.6783 39.9931C85.108 40.6076 84.7522 41.3904 84.6641 42.2242L62.6465 182.928Z" fill="#FFA712"/>
<path d="M131.712 115.634L148.726 98.1798L131.705 65.7221C131.331 65.0236 130.774 64.4397 130.093 64.0327C129.413 63.6257 128.635 63.4107 127.843 63.4107C127.05 63.4107 126.272 63.6257 125.592 64.0327C124.912 64.4397 124.355 65.0236 123.98 65.7221L114.885 83.0596V84.5399L131.712 115.634Z" fill="#F4BD62"/>
<path d="M131.408 114.922L147.95 97.9858L131.408 66.4397C131.137 65.7569 130.675 65.1669 130.076 64.741C129.478 64.3151 128.769 64.0714 128.035 64.0392C127.301 64.0071 126.574 64.188 125.94 64.56C125.307 64.932 124.795 65.4793 124.465 66.1359L115.325 83.7771L115.053 84.6757L131.408 114.922Z" fill="#FFA50E"/>
<path d="M62.0129 184.098L62.5107 183.594L64.3143 182.863L130.639 116.784L131.479 114.496L114.937 82.9626L62.0129 184.098Z" fill="#F6820C"/>
<path d="M133.832 217.422L193.873 183.943L176.717 78.3729C176.594 77.6287 176.268 76.9328 175.776 76.3615C175.283 75.7903 174.642 75.3658 173.924 75.1347C173.206 74.9036 172.439 74.8748 171.705 75.0515C170.972 75.2282 170.302 75.6035 169.768 76.1363L62 184.091L121.686 217.415C123.541 218.451 125.631 218.994 127.756 218.994C129.88 218.994 131.97 218.451 133.826 217.415" fill="#FDE068"/>
<path d="M193.324 183.665L176.31 78.8901C176.279 78.1783 176.039 77.4914 175.618 76.9163C175.198 76.3412 174.616 75.9039 173.947 75.6596C173.278 75.4153 172.551 75.375 171.859 75.5438C171.167 75.7127 170.54 76.0831 170.058 76.6082L62.6465 183.891L121.673 216.859C123.513 217.886 125.586 218.425 127.694 218.425C129.802 218.425 131.875 217.886 133.716 216.859L193.324 183.665Z" fill="#FCCA3F"/>
<path d="M133.832 216.413C131.977 217.449 129.887 217.992 127.762 217.992C125.637 217.992 123.548 217.449 121.692 216.413L62.4913 183.587L62 184.091L121.686 217.415C123.541 218.451 125.631 218.994 127.756 218.994C129.88 218.994 131.97 218.451 133.826 217.415L193.873 183.943L193.724 183.038L133.832 216.413Z" fill="#EEAB37"/>
</svg>
