<svg width="100" height="100" viewBox="0 0 100 100" fill="none" xmlns="http://www.w3.org/2000/svg">
<path d="M50 0C43.4339 0 36.9321 1.31214 30.8658 3.86151C24.7995 6.41088 19.2876 10.1475 14.6447 14.8582C5.26784 24.3717 0 37.2748 0 50.7289C0 73.1511 14.35 92.1745 34.2 98.9214C36.7 99.3273 37.5 97.7547 37.5 96.385V87.8118C23.65 90.8555 20.7 81.0141 20.7 81.0141C18.4 75.1296 15.15 73.557 15.15 73.557C10.6 70.4118 15.5 70.5132 15.5 70.5132C20.5 70.8683 23.15 75.7383 23.15 75.7383C27.5 83.4491 34.85 81.1663 37.7 79.9488C38.15 76.6514 39.45 74.4193 40.85 73.1511C29.75 71.8829 18.1 67.5202 18.1 48.1925C18.1 42.5616 20 38.0467 23.25 34.4449C22.75 33.1767 21 27.9009 23.75 21.0525C23.75 21.0525 27.95 19.6828 37.5 26.2269C41.45 25.1108 45.75 24.5528 50 24.5528C54.25 24.5528 58.55 25.1108 62.5 26.2269C72.05 19.6828 76.25 21.0525 76.25 21.0525C79 27.9009 77.25 33.1767 76.75 34.4449C80 38.0467 81.9 42.5616 81.9 48.1925C81.9 67.5709 70.2 71.8322 59.05 73.1004C60.85 74.673 62.5 77.7675 62.5 82.4853V96.385C62.5 97.7547 63.3 99.378 65.85 98.9214C85.7 92.1237 100 73.1511 100 50.7289C100 44.0671 98.7067 37.4705 96.194 31.3158C93.6812 25.1611 89.9983 19.5688 85.3553 14.8582C80.7124 10.1475 75.2005 6.41088 69.1342 3.86151C63.0679 1.31214 56.5661 0 50 0Z" fill="black"/>
</svg>
