<svg width="256" height="256" viewBox="0 0 256 256" fill="none" xmlns="http://www.w3.org/2000/svg">
<rect width="256" height="256" rx="60" fill="#F4F2ED"/>
<path d="M128 29.243C115.031 29.243 102.189 31.7974 90.2074 36.7604C78.2256 41.7234 67.3388 48.9978 58.1683 58.1683C39.6478 76.6888 29.243 101.808 29.243 128C29.243 171.651 57.5863 208.685 96.7929 221.819C101.731 222.609 103.311 219.548 103.311 216.881V200.191C75.9551 206.117 70.1285 186.958 70.1285 186.958C65.5856 175.502 59.1664 172.441 59.1664 172.441C50.1795 166.318 59.8577 166.515 59.8577 166.515C69.7334 167.207 74.9676 176.687 74.9676 176.687C83.5594 191.698 98.0767 187.254 103.706 184.884C104.595 178.465 107.162 174.12 109.928 171.651C88.0035 169.182 64.9931 160.689 64.9931 123.062C64.9931 112.1 68.7459 103.311 75.1651 96.299C74.1775 93.8301 70.721 83.5594 76.1526 70.2272C76.1526 70.2272 84.4482 67.5607 103.311 80.3004C111.113 78.1277 119.606 77.0414 128 77.0414C136.394 77.0414 144.888 78.1277 152.689 80.3004C171.552 67.5607 179.848 70.2272 179.848 70.2272C185.279 83.5594 181.823 93.8301 180.835 96.299C187.254 103.311 191.007 112.1 191.007 123.062C191.007 160.787 167.898 169.083 145.875 171.552C149.43 174.613 152.689 180.638 152.689 189.822V216.881C152.689 219.548 154.269 222.708 159.306 221.819C198.513 208.586 226.757 171.651 226.757 128C226.757 115.031 224.203 102.189 219.24 90.2073C214.277 78.2256 207.002 67.3387 197.832 58.1683C188.661 48.9978 177.775 41.7234 165.793 36.7604C153.811 31.7974 140.969 29.243 128 29.243Z" fill="black"/>
</svg>
