<svg width="257" height="256" viewBox="0 0 257 256" fill="none" xmlns="http://www.w3.org/2000/svg">
<g clip-path="url(#clip0_2_4)">
<path d="M196.521 0H60.5212C27.3841 0 0.521179 26.8629 0.521179 60V196C0.521179 229.137 27.3841 256 60.5212 256H196.521C229.658 256 256.521 229.137 256.521 196V60C256.521 26.8629 229.658 0 196.521 0Z" fill="#F4F2ED"/>
<path d="M48.3832 176.192L55.7252 180.431L137.518 38.766L130.176 34.527L48.3832 176.192Z" fill="#E535AB"/>
<path d="M210.287 164.875H46.7021V173.353H210.287V164.875Z" fill="#E535AB"/>
<path d="M49.9392 169.637L131.762 216.879L136.001 209.537L54.1782 162.295L49.9392 169.637ZM121.019 46.512L202.842 93.754L207.081 86.412L125.258 39.17L121.019 46.512Z" fill="#E535AB"/>
<path d="M49.9612 86.38L54.2012 93.722L136.024 46.48L131.785 39.138L49.9612 86.38Z" fill="#E535AB"/>
<path d="M119.54 38.767L201.333 180.432L208.675 176.193L126.882 34.528L119.54 38.768V38.767ZM61.6662 80.758H53.1882V175.242H61.6662V80.758Z" fill="#E535AB"/>
<path d="M203.852 80.758H195.374V175.242H203.852V80.758Z" fill="#E535AB"/>
<path d="M126.616 206.877L130.319 213.291L201.483 172.203L197.78 165.79L126.616 206.877Z" fill="#E535AB"/>
<path d="M215.088 178C210.185 186.529 199.255 189.44 190.726 184.537C182.197 179.634 179.286 168.705 184.189 160.176C189.092 151.646 200.022 148.735 208.551 153.638C217.131 158.592 220.042 169.471 215.088 178ZM72.8002 95.824C67.8972 104.353 56.9672 107.265 48.4382 102.362C39.9092 97.459 36.9982 86.529 41.9012 78C46.8042 69.47 57.7332 66.56 66.2632 71.463C74.7922 76.417 77.7032 87.295 72.8002 95.824ZM41.9522 178C37.0492 169.471 39.9602 158.592 48.4892 153.638C57.0192 148.735 67.8972 151.646 72.8512 160.176C77.7542 168.705 74.8432 179.583 66.3142 184.537C57.7342 189.44 46.8552 186.529 41.9522 178ZM184.24 95.824C179.337 87.295 182.248 76.417 190.777 71.463C199.306 66.56 210.185 69.471 215.139 78C220.042 86.53 217.131 97.408 208.601 102.362C200.072 107.265 189.143 104.353 184.24 95.824ZM128.52 228C118.663 228 110.696 220.033 110.696 210.176C110.696 200.319 118.663 192.351 128.52 192.351C138.377 192.351 146.344 200.319 146.344 210.176C146.344 219.982 138.377 228 128.52 228ZM128.52 63.649C118.663 63.649 110.696 55.681 110.696 45.824C110.696 35.967 118.663 28 128.52 28C138.377 28 146.344 35.967 146.344 45.824C146.344 55.681 138.377 63.649 128.52 63.649Z" fill="#E535AB"/>
</g>
<defs>
<clipPath id="clip0_2_4">
<rect width="256" height="256" fill="white" transform="translate(0.521179)"/>
</clipPath>
</defs>
</svg>
