<svg width="257" height="256" viewBox="0 0 257 256" fill="none" xmlns="http://www.w3.org/2000/svg">
<rect x="0.478851" width="256" height="256" rx="60" fill="#F4F2ED"/>
<path d="M155.698 93.7876H156.343L156.02 93.465L178.605 70.8804V70.3965C159.569 53.6194 133.275 47.8119 108.916 55.0712C84.5565 62.3306 65.8436 81.6887 59.0682 106.209C59.3908 106.048 59.8748 105.886 60.3588 105.886C68.7473 100.402 78.749 97.1753 89.2347 97.1753C92.7837 97.1753 96.1714 97.4979 99.5591 98.1432C99.7204 97.9819 99.8817 97.9819 100.043 97.9819C114.562 82.0114 139.082 80.0756 155.859 93.7876H155.698Z" fill="#EA4535"/>
<path d="M200.06 105.886C196.35 92.1744 188.607 79.7529 177.799 70.2351L154.73 93.1423C164.409 101.047 170.055 112.984 169.733 125.406V129.439C196.995 129.439 196.995 170.091 169.733 170.091H128.758V202.355H128.597L128.758 202.677H169.733C193.285 202.839 214.095 187.675 221.032 165.413C227.969 143.151 219.419 118.953 200.06 105.886Z" fill="#557EBF"/>
<path d="M88.5895 202.839H131.016V170.252H88.5895C85.5245 170.252 82.6208 169.607 79.8784 168.478L55.358 192.03V192.353C65.0371 199.29 76.652 203 88.7509 203L88.5895 202.839Z" fill="#36A852"/>
<path d="M90.5254 96.3687C66.489 96.53 45.195 111.371 37.4517 133.149C29.7084 155.088 37.4517 179.125 56.4872 193.321L81.6529 169.284C67.7795 163.316 64.5531 145.893 75.2001 135.73C85.8471 125.406 103.915 128.632 110.206 141.86L135.372 117.824C124.725 104.435 108.109 96.53 90.5254 96.6913V96.3687Z" fill="#F9BC15"/>
</svg>
