<svg width="256" height="256" viewBox="0 0 256 256" fill="none" xmlns="http://www.w3.org/2000/svg">
<rect width="256" height="256" rx="60" fill="#F4F2ED"/>
<path d="M61.7319 201.507L46.9859 36.125H209.014L194.248 201.48L127.902 219.875L61.7319 201.507Z" fill="#E44F26"/>
<path d="M128 205.818L181.616 190.954L194.229 49.6503H128V205.818Z" fill="#F1662A"/>
<path d="M128 110.983H101.159L99.3088 90.2131H128V69.9284H77.1406L77.6263 75.3753L82.6072 131.268H128V110.983ZM128 163.661L127.908 163.687L105.32 157.59L103.876 141.414H83.5128L86.3544 173.255L127.908 184.792L128 184.766V163.661Z" fill="#EBEBEB"/>
<path d="M127.928 110.983V131.268H152.905L150.555 157.577L127.928 163.68V184.785L169.514 173.255L169.816 169.829L174.581 116.43L175.079 110.983H127.928ZM127.928 69.9284V90.2131H176.923L177.33 85.6587L178.256 75.3753L178.741 69.9284H127.928Z" fill="white"/>
</svg>
