<svg width="100" height="100" viewBox="0 0 100 100" fill="none" xmlns="http://www.w3.org/2000/svg">
<g clip-path="url(#clip0_5_5)">
<path d="M50 0C22.3854 0 0 22.3854 0 50C0 77.6146 22.3854 100 50 100C77.6146 100 100 77.6146 100 50C100 22.3854 77.6146 0 50 0ZM37.7604 70.724H27.6354V38.1406H37.7604V70.724ZM32.6354 34.1406C29.4375 34.1406 27.3698 31.875 27.3698 29.0729C27.3698 26.2135 29.5 24.0156 32.7656 24.0156C36.0312 24.0156 38.0312 26.2135 38.0937 29.0729C38.0937 31.875 36.0312 34.1406 32.6354 34.1406ZM74.7396 70.724H64.6146V52.6667C64.6146 48.4635 63.1458 45.6094 59.4844 45.6094C56.6875 45.6094 55.026 47.5417 54.2917 49.401C54.0208 50.0625 53.9531 51 53.9531 51.9323V70.7187H43.8229V48.5313C43.8229 44.4635 43.6927 41.0625 43.5573 38.1354H52.3542L52.8177 42.6615H53.0208C54.3542 40.5365 57.6198 37.401 63.0833 37.401C69.7448 37.401 74.7396 41.8646 74.7396 51.4583V70.724Z" fill="black"/>
</g>
<defs>
<clipPath id="clip0_5_5">
<rect width="100" height="100" fill="white"/>
</clipPath>
</defs>
</svg>
