<svg width="256" height="256" viewBox="0 0 256 256" fill="none" xmlns="http://www.w3.org/2000/svg">
<rect width="256" height="256" rx="60" fill="#F4F2ED"/>
<g clip-path="url(#clip0_2_27)">
<path d="M175.205 213.718C174.472 214.106 174.534 214.229 175.236 213.872C175.452 213.784 175.65 213.657 175.82 213.497C175.82 213.367 175.82 213.367 175.205 213.718ZM176.682 212.918C176.331 213.207 176.331 213.207 176.75 213.016C176.905 212.944 177.046 212.846 177.169 212.727C177.169 212.561 177.07 212.598 176.682 212.918ZM177.643 212.339C177.292 212.629 177.292 212.629 177.71 212.438C177.866 212.364 178.007 212.264 178.129 212.142C178.129 211.988 178.031 212.019 177.643 212.339ZM178.615 211.767C178.264 212.056 178.264 212.056 178.671 211.859C178.899 211.736 179.089 211.607 179.089 211.57C179.089 211.416 178.991 211.447 178.615 211.767ZM179.927 210.899C179.256 211.348 179.022 211.637 179.637 211.317C180.05 211.065 180.752 210.511 180.628 210.511C180.364 210.609 180.142 210.776 179.92 210.899H179.927ZM121.054 29.0677C120.605 29.0985 119.257 29.2216 118.075 29.3201C90.0762 31.8565 63.8813 46.927 47.2779 70.1422C38.1024 82.8748 32.1382 97.6354 29.8927 113.168C29.0985 118.586 29 120.186 29 127.531C29 134.869 29.0985 136.445 29.8927 141.862C35.2547 178.868 61.5789 209.932 97.2605 221.444C103.681 223.494 110.41 224.91 118.075 225.778C121.054 226.098 133.939 226.098 136.919 225.778C150.167 224.301 161.353 221.032 172.422 215.387C174.121 214.525 174.441 214.297 174.214 214.106C168.814 206.968 163.46 199.796 158.152 192.59L142.41 171.332L122.692 142.121C116.133 132.34 109.507 122.605 102.813 112.916C102.746 112.916 102.66 125.899 102.623 141.733C102.555 169.467 102.555 170.594 102.204 171.234C101.867 172.007 101.265 172.634 100.505 173.001C99.8954 173.29 99.3475 173.352 96.4356 173.352H93.105L92.237 172.81C91.6933 172.461 91.2516 171.975 90.9565 171.4L90.5379 170.532L90.5687 131.926L90.6364 93.3205L91.2458 92.5509C91.6351 92.0778 92.1142 91.6865 92.6556 91.3997C93.4621 91.0119 93.7822 90.9503 97.1127 90.9503C101.022 90.9503 101.668 91.1042 102.696 92.2308C110.684 104.112 118.604 116.038 126.453 128.011C139.252 147.415 156.724 173.893 165.312 186.883L180.93 210.517L181.7 210.006C189.206 205.018 196.008 199.044 201.923 192.245C214.331 178.043 222.383 160.566 225.114 141.906C225.908 136.488 226.006 134.881 226.006 127.543C226.006 120.199 225.908 118.629 225.114 113.211C219.751 76.2061 193.427 45.1416 157.746 33.6233C151.077 31.5112 144.213 30.0737 137.258 29.3324C135.392 29.1416 122.661 28.9138 121.061 29.08L121.054 29.0677ZM161.359 88.6417C161.817 88.8666 162.226 89.1807 162.561 89.5655C162.896 89.9503 163.151 90.398 163.311 90.8826C163.477 91.3997 163.508 102.105 163.477 126.219L163.409 160.842L157.321 151.485L151.195 142.121V116.985C151.195 100.689 151.263 91.5536 151.349 91.1042C151.651 90.0738 152.342 89.2014 153.276 88.6725C154.04 88.2846 154.335 88.2539 157.382 88.2539C160.233 88.2539 160.719 88.2846 161.359 88.6417Z" fill="black"/>
</g>
<defs>
<clipPath id="clip0_2_27">
<rect width="197" height="197" fill="white" transform="translate(29 29)"/>
</clipPath>
</defs>
</svg>
