<svg width="256" height="256" viewBox="0 0 256 256" fill="none" xmlns="http://www.w3.org/2000/svg">
<path d="M128 240C124.978 240.002 122.009 239.207 119.392 237.696L92 221.48C87.912 219.192 89.904 218.384 91.256 217.912C95.6046 216.571 99.7678 214.69 103.648 212.312C103.972 212.159 104.331 212.093 104.688 212.12C105.045 212.147 105.39 212.265 105.688 212.464L126.736 224.968C127.128 225.175 127.565 225.284 128.008 225.284C128.451 225.284 128.888 225.175 129.28 224.968L211.36 177.592C211.746 177.364 212.065 177.038 212.285 176.648C212.506 176.258 212.62 175.816 212.616 175.368V80.6C212.617 80.145 212.501 79.6975 212.278 79.3008C212.055 78.9041 211.733 78.5718 211.344 78.336L129.264 31C128.878 30.7797 128.441 30.6639 127.996 30.6639C127.551 30.6639 127.114 30.7797 126.728 31L44.696 78.352C44.3047 78.5834 43.9798 78.9119 43.7528 79.3058C43.5257 79.6996 43.4042 80.1454 43.4 80.6V175.328C43.4052 175.774 43.5268 176.211 43.7527 176.595C43.9786 176.98 44.301 177.298 44.688 177.52L67.2 190.512C79.4 196.608 86.872 189.424 86.872 182.208V88.68C86.872 88.0435 87.1249 87.433 87.575 86.9829C88.025 86.5328 88.6355 86.28 89.272 86.28H99.672C100.309 86.28 100.919 86.5328 101.369 86.9829C101.819 87.433 102.072 88.0435 102.072 88.68V182.216C102.072 198.496 93.208 207.816 77.768 207.816C71.1076 207.927 64.5524 206.146 58.864 202.68L37.288 190.304C34.6709 188.776 32.4993 186.59 30.9891 183.963C29.479 181.335 28.6829 178.358 28.68 175.328V80.6C28.6706 77.5639 29.4613 74.5789 30.9725 71.9456C32.4836 69.3123 34.6619 67.1236 37.288 65.6L119.376 18.208C122.021 16.7642 124.986 16.0076 128 16.0076C131.014 16.0076 133.979 16.7642 136.624 18.208L218.704 65.6C221.32 67.1254 223.492 69.3087 225.003 71.933C226.515 74.5574 227.314 77.5315 227.32 80.56V175.328C227.316 178.359 226.519 181.337 225.007 183.964C223.496 186.591 221.323 188.777 218.704 190.304L136.624 237.696C134.002 239.21 131.027 240.004 128 240Z" fill="#83CD29"/>
<path d="M112.432 143.624C112.432 142.987 112.685 142.377 113.135 141.927C113.585 141.477 114.195 141.224 114.832 141.224H125.448C126.015 141.226 126.563 141.428 126.995 141.796C127.427 142.164 127.715 142.672 127.808 143.232C129.408 154.04 134.208 159.488 155.912 159.488C173.2 159.488 180.568 155.576 180.568 146.4C180.568 141.112 178.48 137.184 151.608 134.552C129.144 132.328 115.256 127.352 115.256 109.4C115.256 92.84 129.216 82.96 152.616 82.96C178.912 82.96 191.928 92.088 193.576 111.672C193.601 111.999 193.559 112.328 193.452 112.638C193.345 112.948 193.176 113.233 192.955 113.475C192.734 113.717 192.466 113.911 192.166 114.045C191.867 114.18 191.544 114.251 191.216 114.256H180.528C179.992 114.248 179.473 114.062 179.056 113.725C178.638 113.389 178.345 112.922 178.224 112.4C175.672 101.032 169.424 97.4 152.624 97.4C133.744 97.4 131.552 103.976 131.552 108.904C131.552 114.872 134.144 116.616 159.632 119.984C184.856 123.32 196.84 128.04 196.84 145.768C196.84 163.656 181.928 173.896 155.92 173.896C119.96 173.944 112.432 157.456 112.432 143.624Z" fill="#83CD29"/>
</svg>
