<svg width="257" height="256" viewBox="0 0 257 256" fill="none" xmlns="http://www.w3.org/2000/svg">
<g clip-path="url(#clip0_2_15)">
<path d="M196.521 0H60.5212C27.3842 0 0.52124 26.8629 0.52124 60V196C0.52124 229.137 27.3842 256 60.5212 256H196.521C229.658 256 256.521 229.137 256.521 196V60C256.521 26.8629 229.658 0 196.521 0Z" fill="#F4F2ED"/>
<path d="M128.522 146.951C138.826 146.951 147.178 138.598 147.178 128.295C147.178 117.992 138.826 109.639 128.522 109.639C118.219 109.639 109.866 117.992 109.866 128.295C109.866 138.598 118.219 146.951 128.522 146.951Z" fill="#00D8FF"/>
<path d="M128.523 90.363C153.571 90.363 176.84 93.957 194.385 99.998C215.524 107.275 228.521 118.306 228.521 128.295C228.521 138.704 214.747 150.423 192.046 157.944C174.884 163.63 152.3 166.598 128.523 166.598C104.145 166.598 81.0602 163.812 63.7042 157.881C41.7462 150.376 28.5212 138.506 28.5212 128.295C28.5212 118.387 40.9312 107.441 61.7732 100.175C79.3832 94.035 103.226 90.363 128.519 90.363H128.523Z" stroke="#00D8FF" stroke-width="8.911"/>
<path d="M95.5022 109.438C108.016 87.74 122.753 69.378 136.751 57.198C153.615 42.521 169.665 36.773 178.317 41.762C187.334 46.962 190.605 64.75 185.78 88.172C182.135 105.879 173.421 126.925 161.542 147.523C149.363 168.641 135.418 187.247 121.611 199.315C104.14 214.587 87.2492 220.114 78.4042 215.013C69.8212 210.067 66.5392 193.846 70.6572 172.161C74.1362 153.838 82.8672 131.349 95.4982 109.438H95.5022Z" stroke="#00D8FF" stroke-width="8.911"/>
<path d="M95.5333 147.578C82.9843 125.904 74.4403 103.962 70.8743 85.752C66.5813 63.811 69.6163 47.036 78.2613 42.032C87.2703 36.816 104.313 42.866 122.195 58.744C135.715 70.748 149.598 88.805 161.511 109.383C173.725 130.481 182.879 151.856 186.44 169.844C190.946 192.608 187.299 210.001 178.462 215.116C169.888 220.08 154.197 214.825 137.466 200.427C123.33 188.263 108.206 169.468 95.5333 147.578Z" stroke="#00D8FF" stroke-width="8.911"/>
</g>
<defs>
<clipPath id="clip0_2_15">
<rect width="256" height="256" fill="white" transform="translate(0.52124)"/>
</clipPath>
</defs>
</svg>
