<svg width="256" height="256" viewBox="0 0 256 256" fill="none" xmlns="http://www.w3.org/2000/svg">
<rect x="0.478882" y="0.0552368" width="255.042" height="255.89" rx="60" fill="#F4F2ED"/>
<path d="M125.671 28.7273C122.394 30.021 109.542 38.8186 104.281 43.3899C90.826 54.9475 80.3034 69.4376 76.2496 82.1164C75.3009 85.1352 74.5246 87.8952 74.5246 88.2402C74.5246 88.5852 76.0771 89.4477 77.9747 90.224C82.4597 91.949 82.5459 94.5365 78.3197 99.5391C73.4896 105.318 72.4546 107.905 72.5409 114.115C72.6271 121.188 75.0421 127.829 83.236 143.872C89.3598 155.861 89.3598 155.947 88.9285 161.295C88.1522 168.885 85.7372 173.283 81.5109 174.577C77.8884 175.612 72.9721 174.577 71.0746 172.421C69.6083 170.523 69.0908 163.106 70.3846 161.036C74.2659 154.653 74.5246 153.877 73.5759 151.721C72.2821 148.874 68.3146 148.012 65.4683 149.823C64.3471 150.599 62.277 153.014 60.9833 155.257C58.9133 158.88 58.5683 160.26 58.6545 165.866C58.7408 173.197 59.7758 175.785 64.6058 180.701C68.0558 184.237 71.9371 185.703 78.0609 185.703C84.4435 185.703 87.1172 184.841 90.9123 181.65C96.1736 177.165 98.6748 171.386 99.5373 162.071C100.141 156.206 100.659 153.963 101.78 153.187C104.109 151.548 107.731 151.807 109.542 153.877C111.095 155.602 111.181 157.327 111.181 182.167C111.181 207.784 111.095 208.646 109.284 212.182C106.869 216.667 102.815 218.306 97.7261 216.84C91.4298 214.942 90.0498 208.301 94.4485 200.711C96.6911 196.744 96.8636 195.881 96.0011 194.156C94.7073 191.655 93.586 190.879 90.9985 190.879C86.5135 190.879 80.5622 200.797 80.5622 208.215C80.5622 215.546 87.2897 225.379 93.4998 227.104C97.3811 228.225 104.367 228.225 108.076 227.104C111.957 225.983 117.219 220.808 119.634 215.891C121.445 212.182 121.531 210.63 121.963 180.873C122.394 151.721 122.48 149.564 124.033 147.839C124.981 146.804 126.706 146.028 128 146.028C129.294 146.028 131.019 146.804 131.968 147.839C133.52 149.564 133.606 151.721 134.038 180.873C134.469 210.63 134.555 212.182 136.366 215.891C138.781 220.808 144.043 225.983 147.924 227.104C151.633 228.225 158.619 228.225 162.5 227.104C168.71 225.379 175.438 215.546 175.438 208.215C175.438 203.644 172.764 196.657 169.832 193.725C165.864 189.757 162.242 189.93 159.999 194.156C159.137 195.881 159.309 196.744 161.552 200.711C165.95 208.301 164.57 214.942 158.274 216.84C153.185 218.306 149.131 216.667 146.716 212.182C144.905 208.646 144.819 207.784 144.819 182.167C144.819 157.327 144.905 155.602 146.458 153.877C148.355 151.807 151.891 151.548 154.22 153.187C155.514 154.136 155.945 156.12 156.463 162.071C157.239 171.3 159.74 177.078 165.088 181.65C168.883 184.841 171.557 185.703 177.939 185.703C184.063 185.703 187.944 184.237 191.394 180.701C196.224 175.785 197.259 173.197 197.346 165.866C197.432 160.26 197.087 158.88 195.017 155.257C193.723 153.014 191.653 150.599 190.532 149.823C187.686 148.012 183.718 148.874 182.424 151.721C181.475 153.877 181.734 154.653 185.616 161.036C186.909 163.106 186.392 170.523 184.839 172.421C184.322 173.111 182.424 174.06 180.613 174.577C173.627 176.733 168.365 172.248 167.158 163.02C166.382 157.586 168.538 151.203 175.783 137.058C186.047 117.048 186.392 109.975 177.68 99.5391C173.454 94.5365 173.54 91.949 178.025 90.224C179.923 89.4477 181.475 88.4127 181.475 87.8952C181.475 87.2915 180.699 84.5315 179.664 81.7714C175.955 71.0763 167.848 58.8288 158.274 49.4274C153.53 44.7699 141.455 34.7648 140.593 34.7648C140.334 34.7648 137.746 33.2123 134.814 31.3148C129.121 27.6923 128.69 27.5198 125.671 28.7273Z" fill="#3389FF"/>
</svg>
