<svg width="256" height="256" viewBox="0 0 256 256" fill="none" xmlns="http://www.w3.org/2000/svg">
<rect width="256" height="256" rx="61.9355" fill="#F4F2ED"/>
<path d="M174.078 82.3338C179.09 83.4997 183.644 86.1238 187.165 89.8752C189.105 91.9054 190.79 94.1651 192.181 96.6041C192.246 96.869 183.15 102.98 177.634 106.388C177.434 106.524 176.639 105.658 175.738 104.328C174.731 102.596 173.3 101.147 171.581 100.118C169.862 99.0883 167.91 98.5114 165.907 98.4409C159.567 98.0052 155.481 101.326 155.51 106.877C155.456 108.241 155.767 109.595 156.411 110.798C157.806 113.683 160.397 115.413 168.533 118.94C183.509 125.386 189.938 129.637 193.906 135.677C196.149 139.493 197.53 143.754 197.953 148.16C198.376 152.567 197.831 157.012 196.355 161.186C194.327 165.762 191.111 169.713 187.04 172.627C182.97 175.541 178.193 177.313 173.207 177.758C167.907 178.366 162.551 178.31 157.265 177.593C149.167 176.262 141.707 172.376 135.977 166.502C133.812 164.063 131.979 161.35 130.526 158.43C131.137 157.976 131.78 157.567 132.451 157.206C133.381 156.676 136.901 154.651 140.222 152.726L146.25 149.194L147.51 151.03C149.632 154.065 152.333 156.65 155.457 158.636C158.613 160.367 162.188 161.188 165.782 161.006C169.377 160.824 172.85 159.647 175.815 157.606C177.344 156.116 178.3 154.134 178.516 152.01C178.731 149.885 178.192 147.752 176.992 145.985C175.368 143.66 172.047 141.705 162.61 137.614C155.21 135.118 148.471 130.983 142.894 125.516C140.239 122.489 138.278 118.919 137.149 115.054C136.314 110.652 136.19 106.144 136.784 101.702C137.891 96.5914 140.544 91.9446 144.381 88.3916C148.218 84.8386 153.055 82.5511 158.236 81.8393C163.512 81.2089 168.852 81.3756 174.078 82.3338ZM124.962 91.0644L125.027 99.6242H97.7698V177.028H78.5484V99.6419H51.2912V91.2351C51.2187 88.3561 51.2973 85.4753 51.5266 82.6046C51.6267 82.4692 68.1989 82.4044 88.2916 82.4398L124.856 82.5398L124.962 91.0644Z" fill="#007ACC"/>
</svg>
