<svg width="256" height="256" viewBox="0 0 256 256" fill="none" xmlns="http://www.w3.org/2000/svg">
<g clip-path="url(#clip0_1_16)">
<path d="M196 0H60C26.8629 0 0 26.8629 0 60V196C0 229.137 26.8629 256 60 256H196C229.137 256 256 229.137 256 196V60C256 26.8629 229.137 0 196 0Z" fill="#F4F2ED"/>
<path d="M174.105 108.436C174.105 108.436 160.29 151.718 159.269 155.393C158.861 151.786 148.789 74 148.789 74C125.242 74 112.72 90.741 106.05 108.436C106.05 108.436 89.241 151.854 87.88 155.461C87.812 152.058 85.294 108.844 85.294 108.844C83.864 87.134 64.06 74 48 74L67.328 191.802C91.963 191.734 105.234 175.061 112.175 157.299C112.175 157.299 126.943 118.984 127.556 117.283C127.692 118.916 138.172 191.802 138.172 191.802C162.876 191.802 176.215 176.218 183.36 159.136L218 74C193.568 74 180.706 90.673 174.105 108.436Z" fill="#4353FF"/>
</g>
<defs>
<clipPath id="clip0_1_16">
<rect width="256" height="256" fill="white"/>
</clipPath>
</defs>
</svg>
